<svg xmlns="http://www.w3.org/2000/svg" xmlns:xlink="http://www.w3.org/1999/xlink" width="100" zoomAndPan="magnify" viewBox="0 0 75 74.999997" height="100" preserveAspectRatio="xMidYMid meet" version="1.0"><defs><filter x="0%" y="0%" width="100%" height="100%" id="e81be66080"><feColorMatrix values="0 0 0 0 1 0 0 0 0 1 0 0 0 0 1 0 0 0 1 0" color-interpolation-filters="sRGB"/></filter><mask id="82e556a067"><g filter="url(#e81be66080)"><rect x="-7.5" width="90" fill="#000000" y="-7.5" height="89.999996" fill-opacity="0.25"/></g></mask><clipPath id="b7ec662efd"><path d="M 23 0.648438 L 29 0.648438 L 29 6 L 23 6 Z M 23 0.648438 " clip-rule="nonzero"/></clipPath><clipPath id="3297d25c46"><path d="M 25 0.648438 L 30 0.648438 L 30 7 L 25 7 Z M 25 0.648438 " clip-rule="nonzero"/></clipPath><clipPath id="4a0599e0e6"><path d="M 0.234375 4 L 38 4 L 38 54.558594 L 0.234375 54.558594 Z M 0.234375 4 " clip-rule="nonzero"/></clipPath><clipPath id="b7f5d5a32e"><path d="M 0.234375 4 L 38.484375 4 L 38.484375 54.558594 L 0.234375 54.558594 Z M 0.234375 4 " clip-rule="nonzero"/></clipPath><clipPath id="773e3da33d"><path d="M 35 11 L 38.484375 11 L 38.484375 13 L 35 13 Z M 35 11 " clip-rule="nonzero"/></clipPath><clipPath id="d01ff80a69"><path d="M 34 12 L 38.484375 12 L 38.484375 14 L 34 14 Z M 34 12 " clip-rule="nonzero"/></clipPath><clipPath id="46496f7892"><path d="M 34 12 L 38.484375 12 L 38.484375 16 L 34 16 Z M 34 12 " clip-rule="nonzero"/></clipPath><clipPath id="63f0085fad"><rect x="0" width="39" y="0" height="55"/></clipPath><clipPath id="c1f7f406aa"><path d="M 23.773438 24.429688 L 45 24.429688 L 45 41 L 23.773438 41 Z M 23.773438 24.429688 " clip-rule="nonzero"/></clipPath><clipPath id="2dbfa2d7e3"><path d="M 30 38 L 51.523438 38 L 51.523438 54.429688 L 30 54.429688 Z M 30 38 " clip-rule="nonzero"/></clipPath></defs><g mask="url(#82e556a067)"><g transform="matrix(1, 0, 0, 1, 18, 10)"><g clip-path="url(#63f0085fad)"><path fill="#ffffff" d="M 28.453125 41.695312 C 28.457031 41.664062 28.5 41.636719 28.578125 41.617188 C 28.652344 41.601562 28.769531 41.597656 28.910156 41.621094 C 29.054688 41.644531 29.222656 41.699219 29.398438 41.800781 C 29.578125 41.902344 29.757812 42.046875 29.914062 42.25 C 30.023438 42.390625 30.113281 42.554688 30.179688 42.738281 C 30.242188 42.917969 30.28125 43.117188 30.285156 43.324219 C 30.292969 43.519531 30.265625 43.714844 30.210938 43.894531 C 30.152344 44.097656 30.058594 44.28125 29.945312 44.4375 C 29.832031 44.59375 29.703125 44.722656 29.570312 44.820312 C 29.433594 44.921875 29.292969 44.992188 29.167969 45.039062 C 29.039062 45.082031 28.925781 45.105469 28.828125 45.109375 C 28.734375 45.117188 28.660156 45.109375 28.609375 45.09375 C 28.558594 45.078125 28.53125 45.058594 28.527344 45.03125 C 28.523438 45.007812 28.542969 44.980469 28.582031 44.949219 C 28.621094 44.917969 28.675781 44.882812 28.746094 44.835938 C 28.8125 44.792969 28.894531 44.742188 28.976562 44.675781 C 29.0625 44.613281 29.152344 44.535156 29.238281 44.441406 C 29.320312 44.351562 29.394531 44.246094 29.460938 44.125 C 29.527344 44.007812 29.582031 43.871094 29.617188 43.730469 C 29.644531 43.609375 29.660156 43.476562 29.65625 43.339844 C 29.652344 43.199219 29.628906 43.058594 29.59375 42.933594 C 29.554688 42.804688 29.5 42.683594 29.4375 42.578125 C 29.351562 42.425781 29.238281 42.300781 29.121094 42.195312 C 29.007812 42.09375 28.894531 42.011719 28.792969 41.949219 C 28.691406 41.886719 28.605469 41.839844 28.546875 41.800781 C 28.484375 41.761719 28.453125 41.726562 28.453125 41.695312 Z M 28.453125 41.695312 " fill-opacity="1" fill-rule="evenodd"/><path fill="#ffffff" d="M 23.433594 31.097656 C 23.359375 31.722656 23.285156 32.792969 23.234375 33.410156 C 23.1875 34.023438 23.167969 34.757812 23.214844 35.566406 C 23.261719 36.375 23.355469 37.144531 23.597656 38.171875 C 23.84375 39.199219 24.167969 40.316406 24.640625 41.320312 C 25.113281 42.328125 25.898438 43.402344 26.535156 44.265625 C 25.53125 43.730469 24.890625 43.433594 23.886719 42.085938 C 22.882812 40.738281 22.519531 39.4375 22.3125 38.558594 C 22.109375 37.679688 22.117188 36.535156 22.152344 35.785156 C 22.183594 35.039062 22.308594 34.226562 22.453125 33.605469 C 22.59375 32.984375 22.730469 32.28125 23.433594 31.097656 Z M 23.433594 31.097656 " fill-opacity="1" fill-rule="evenodd"/><g clip-path="url(#b7ec662efd)"><path fill="#ffffff" d="M 28.445312 0.714844 C 27.921875 0.917969 27.425781 1.105469 26.933594 1.367188 C 26.4375 1.625 25.695312 2.132812 25.285156 2.503906 C 24.871094 2.878906 24.378906 3.441406 24.136719 3.789062 C 23.890625 4.140625 23.472656 4.875 23.207031 5.355469 C 23.234375 4.828125 23.253906 4.371094 23.414062 3.886719 C 23.578125 3.40625 23.945312 2.542969 24.707031 1.875 C 25.46875 1.207031 26.039062 1 26.671875 0.824219 C 27.308594 0.652344 27.949219 0.671875 28.445312 0.714844 Z M 28.445312 0.714844 " fill-opacity="1" fill-rule="evenodd"/></g><path fill="#ffffff" d="M 30.085938 1.160156 C 29.875 1.425781 29.824219 1.585938 29.675781 1.878906 C 29.527344 2.171875 29.398438 2.652344 29.410156 3.035156 C 29.421875 3.414062 29.46875 3.84375 29.695312 4.199219 C 29.925781 4.558594 30.382812 4.917969 30.695312 5.046875 C 30.242188 5.078125 29.570312 4.742188 29.339844 4.460938 C 29.109375 4.175781 28.703125 3.75 28.707031 3.0625 C 28.714844 2.371094 28.9375 2.042969 29.195312 1.753906 C 29.457031 1.460938 29.789062 1.214844 30.085938 1.160156 Z M 30.085938 1.160156 " fill-opacity="1" fill-rule="evenodd"/><g clip-path="url(#3297d25c46)"><path fill="#ffffff" d="M 29.804688 0.785156 C 29.328125 1.074219 28.875 1.347656 28.433594 1.691406 C 27.992188 2.03125 27.347656 2.660156 27.007812 3.101562 C 26.667969 3.542969 26.28125 4.179688 26.101562 4.566406 C 25.921875 4.953125 25.636719 5.753906 25.464844 6.269531 C 25.394531 5.746094 25.335938 5.292969 25.410156 4.789062 C 25.484375 4.289062 25.699219 3.375 26.332031 2.582031 C 26.964844 1.789062 27.484375 1.484375 28.082031 1.203125 C 28.675781 0.921875 29.308594 0.832031 29.804688 0.785156 Z M 29.804688 0.785156 " fill-opacity="1" fill-rule="evenodd"/></g><g clip-path="url(#4a0599e0e6)"><path fill="#ffffff" d="M 31.9375 47.300781 C 30.035156 46.332031 27.898438 45.90625 25.769531 45.769531 C 23.640625 45.632812 21.507812 45.765625 19.378906 45.863281 C 17.246094 45.957031 15.101562 46.007812 12.992188 45.699219 C 10.882812 45.390625 8.792969 44.707031 7.070312 43.449219 C 5.578125 42.359375 4.398438 40.855469 3.625 39.175781 C 2.847656 37.496094 2.464844 35.644531 2.4375 33.796875 C 2.390625 31.066406 3.113281 28.328125 4.515625 25.992188 C 5.921875 23.652344 8.003906 21.722656 10.449219 20.519531 C 12.039062 19.738281 13.761719 19.269531 15.390625 18.578125 C 17.019531 17.886719 18.609375 16.925781 19.578125 15.441406 C 20.570312 13.921875 20.796875 12.046875 21.234375 10.285156 C 21.707031 8.375 22.460938 6.535156 23.460938 4.839844 C 22.132812 5.835938 21.09375 7.214844 20.507812 8.769531 C 20.179688 9.644531 19.988281 10.570312 19.761719 11.476562 C 19.53125 12.386719 19.257812 13.292969 18.773438 14.097656 C 18.277344 14.917969 17.574219 15.601562 16.785156 16.144531 C 15.996094 16.691406 15.121094 17.101562 14.226562 17.445312 C 12.4375 18.128906 10.542969 18.550781 8.804688 19.355469 C 6.074219 20.625 3.816406 22.832031 2.367188 25.46875 C 0.914062 28.109375 0.257812 31.15625 0.351562 34.164062 C 0.421875 36.371094 0.890625 38.574219 1.84375 40.566406 C 2.792969 42.558594 4.242188 44.328125 6.078125 45.554688 C 8.945312 47.46875 12.535156 47.949219 15.988281 48.007812 C 19.4375 48.066406 22.917969 47.757812 26.324219 48.316406 C 30.640625 49.027344 34.710938 51.164062 37.746094 54.3125 C 36.867188 51.320312 34.714844 48.722656 31.9375 47.300781 " fill-opacity="1" fill-rule="nonzero"/></g><g clip-path="url(#b7f5d5a32e)"><path stroke-linecap="butt" transform="matrix(0.0630626, 0, 0, 0.0630626, -4.22656, -5.345409)" fill="none" stroke-linejoin="miter" d="M 573.462886 834.824312 C 543.296927 819.462592 509.414424 812.710868 475.655805 810.542883 C 441.897186 808.374899 408.076624 810.480941 374.318005 812.029502 C 340.497444 813.51612 306.491055 814.321371 273.042148 809.42792 C 239.593241 804.534469 206.454046 793.694545 179.137439 773.749086 C 155.475434 756.467151 136.768823 732.619319 124.504224 705.984078 C 112.177683 679.348837 106.107325 649.98813 105.673728 620.689365 C 104.930419 577.391614 116.389767 533.969977 138.627096 496.92841 C 160.926367 459.8249 193.941677 429.225344 232.717632 410.147079 C 257.928197 397.758595 285.244805 390.325504 311.074794 379.361696 C 336.904783 368.397888 362.115348 353.160052 377.477068 329.621933 C 393.210443 305.526331 396.803104 275.793969 403.740655 247.857938 C 411.235688 217.568094 423.190575 188.393214 439.047834 161.510204 C 417.987411 177.305521 401.510728 199.171196 392.219365 223.824279 C 387.016201 237.699381 383.981023 252.379735 380.388362 266.750376 C 376.733759 281.18296 372.39779 295.553602 364.71693 308.31374 C 356.850243 321.321648 345.700607 332.161572 333.188238 340.771568 C 320.675869 349.443507 306.800767 355.947461 292.615953 361.398394 C 264.246324 372.238318 234.20425 378.928099 206.639873 391.688238 C 163.342122 411.819524 127.539403 446.816992 104.558765 488.628125 C 81.516185 530.501202 71.109858 578.816289 72.596476 626.511953 C 73.71144 661.50942 81.14453 696.444945 96.258481 728.03558 C 111.310489 759.626214 134.291127 787.68613 163.404064 807.13605 C 208.869801 837.487836 265.794885 845.106754 320.551984 846.03589 C 375.247141 846.965027 430.437838 842.071575 484.451628 850.929341 C 552.898003 862.202862 617.442005 896.085366 665.571265 946.010957 C 651.634221 898.563063 617.503947 857.371353 573.462886 834.824312 " stroke="#000000" stroke-width="0.729" stroke-opacity="1" stroke-miterlimit="4"/></g><path fill="#ffffff" d="M 18.222656 37.746094 C 18.222656 37.324219 15.988281 35.535156 14.75 34.960938 C 13.234375 34.261719 10.988281 34.003906 9.589844 34.363281 C 8.324219 34.691406 8.738281 34.1875 10.191406 33.628906 C 11.875 32.984375 14.199219 32.949219 15.398438 33.550781 C 16.261719 33.984375 17.074219 34.722656 17.625 35.574219 C 18.097656 36.300781 18.644531 37.929688 18.417969 37.929688 C 18.308594 37.929688 18.222656 37.847656 18.222656 37.746094 Z M 18.222656 37.746094 " fill-opacity="1" fill-rule="nonzero"/><path fill="#ffffff" d="M 30.429688 20.707031 C 31.496094 21.214844 32.289062 22.710938 32.367188 23.839844 C 32.445312 24.972656 32.167969 26.445312 31.710938 27.261719 C 31.257812 28.078125 29.933594 30.003906 28.953125 32.164062 C 28.320312 33.566406 27.832031 35.070312 27.820312 36.433594 C 27.832031 37.605469 27.808594 38.1875 28.066406 39.566406 C 28.320312 40.945312 28.503906 41.046875 28.625 41.734375 C 27.960938 41.035156 27.472656 39.648438 27.15625 38.25 C 26.796875 36.664062 26.582031 36.121094 26.738281 34.421875 C 26.898438 32.726562 27.5 31.804688 28.179688 30.523438 C 28.992188 28.996094 29.902344 27.660156 30.261719 27.121094 C 30.617188 26.582031 31.507812 25.191406 31.589844 23.894531 C 31.667969 22.597656 31.027344 21.59375 30.429688 20.707031 Z M 30.429688 20.707031 " fill-opacity="1" fill-rule="evenodd"/><path fill="#ffffff" d="M 32.585938 9.164062 C 32.570312 9.15625 32.5625 9.136719 32.558594 9.105469 C 32.554688 9.074219 32.554688 9.035156 32.550781 8.988281 C 32.542969 8.9375 32.539062 8.882812 32.523438 8.820312 C 32.507812 8.761719 32.484375 8.695312 32.445312 8.636719 C 32.410156 8.582031 32.363281 8.527344 32.300781 8.484375 C 32.242188 8.441406 32.171875 8.40625 32.097656 8.390625 C 32.035156 8.378906 31.96875 8.375 31.902344 8.390625 C 31.835938 8.402344 31.769531 8.429688 31.714844 8.46875 C 31.65625 8.507812 31.609375 8.5625 31.570312 8.628906 C 31.542969 8.679688 31.523438 8.738281 31.515625 8.792969 C 31.496094 8.902344 31.527344 9.03125 31.578125 9.144531 C 31.632812 9.273438 31.726562 9.390625 31.820312 9.5 C 31.984375 9.6875 32.148438 9.824219 32.261719 9.925781 C 32.316406 9.976562 32.363281 10.019531 32.390625 10.050781 C 32.421875 10.085938 32.433594 10.113281 32.425781 10.132812 C 32.417969 10.152344 32.386719 10.164062 32.339844 10.164062 C 32.292969 10.164062 32.230469 10.15625 32.148438 10.132812 C 31.988281 10.085938 31.765625 9.984375 31.539062 9.800781 C 31.40625 9.695312 31.265625 9.558594 31.152344 9.367188 C 31.054688 9.195312 30.988281 8.976562 31.011719 8.738281 C 31.023438 8.613281 31.0625 8.492188 31.125 8.378906 C 31.199219 8.242188 31.304688 8.128906 31.433594 8.046875 C 31.5625 7.964844 31.699219 7.917969 31.835938 7.90625 C 31.972656 7.890625 32.109375 7.90625 32.230469 7.949219 C 32.378906 8 32.496094 8.085938 32.585938 8.183594 C 32.675781 8.28125 32.738281 8.390625 32.773438 8.496094 C 32.808594 8.613281 32.8125 8.722656 32.804688 8.8125 C 32.792969 8.902344 32.769531 8.976562 32.738281 9.03125 C 32.710938 9.085938 32.679688 9.125 32.652344 9.144531 C 32.625 9.167969 32.601562 9.171875 32.585938 9.164062 Z M 32.585938 9.164062 " fill-opacity="1" fill-rule="evenodd"/><path stroke-linecap="round" transform="matrix(0.0272888, 0, 0, 0.0337645, 45.398581, 1.62419)" fill-opacity="1" fill="#ffffff" fill-rule="nonzero" stroke-linejoin="miter" d="M -473.242654 219.027092 C -473.242654 232.100177 -477.966439 242.74375 -483.549095 242.74375 C -489.274895 242.74375 -493.99868 232.100177 -493.99868 219.027092 C -493.99868 205.838317 -489.274895 195.194743 -483.549095 195.194743 C -477.966439 195.194743 -473.385799 205.722626 -473.242654 218.680019 L -483.549095 219.027092 Z M -473.242654 219.027092 " stroke="#000000" stroke-width="0.8" stroke-opacity="1" stroke-miterlimit="4"/><path fill="#ffffff" d="M 25.527344 45.140625 C 24.339844 44.246094 22.089844 44.21875 18.117188 44.011719 C 12.917969 43.746094 10.652344 43.054688 9.488281 42.632812 C 8.125 42.144531 8.125 42.480469 9.488281 43.320312 C 10.914062 44.203125 12.886719 44.902344 18.566406 44.925781 C 22.292969 44.9375 23.917969 44.652344 25.035156 45.132812 C 25.824219 45.46875 25.964844 45.472656 25.527344 45.140625 Z M 25.527344 45.140625 " fill-opacity="1" fill-rule="nonzero"/><path fill="#ffffff" d="M 30.644531 4.984375 C 31.253906 5.035156 32.265625 5.4375 32.65625 5.78125 C 33.417969 6.554688 33.734375 7.238281 34.019531 8.160156 C 34.164062 8.621094 34.296875 9.082031 34.476562 9.492188 C 34.832031 10.246094 35.296875 10.976562 35.390625 11.746094 C 35.320312 13.058594 34.890625 13.921875 33.804688 14.546875 C 33.09375 14.949219 32.277344 15.097656 31.609375 15.476562 C 30.757812 16.007812 30.191406 16.855469 30.046875 17.8125 C 29.988281 18.316406 29.984375 18.816406 30.078125 19.34375 C 30.171875 19.871094 30.257812 20.195312 30.5 20.601562 C 30.027344 20.328125 29.707031 19.804688 29.523438 19.367188 C 29.3125 18.847656 29.230469 18.28125 29.269531 17.773438 C 29.417969 16.628906 30.035156 15.644531 30.960938 15.070312 C 31.671875 14.648438 32.484375 14.488281 33.144531 14.105469 C 33.953125 13.613281 34.542969 12.738281 34.480469 11.796875 C 34.378906 11.007812 33.921875 10.34375 33.640625 9.675781 C 33.453125 9.207031 33.429688 8.757812 33.308594 8.304688 C 33.09375 7.46875 32.980469 6.902344 32.496094 6.335938 C 32.179688 5.867188 31.1875 5.246094 30.644531 4.984375 Z M 30.644531 4.984375 " fill-opacity="1" fill-rule="evenodd"/><g clip-path="url(#773e3da33d)"><path fill="#ffffff" d="M 35.085938 12.085938 L 35.339844 12.457031 C 35.917969 12.132812 36.695312 12.015625 37.414062 12.164062 C 37.917969 12.269531 38.398438 12.507812 38.761719 12.84375 C 38.453125 12.472656 38.003906 12.171875 37.476562 11.996094 C 36.730469 11.75 35.847656 11.773438 35.085938 12.085938 Z M 35.085938 12.085938 " fill-opacity="1" fill-rule="evenodd"/></g><g clip-path="url(#d01ff80a69)"><path fill="#ffffff" d="M 34.871094 12.441406 L 34.917969 12.867188 C 35.386719 12.804688 35.875 12.800781 36.355469 12.851562 C 37.152344 12.941406 37.9375 13.199219 38.617188 13.597656 C 38.003906 13.128906 37.246094 12.777344 36.417969 12.59375 C 35.917969 12.480469 35.398438 12.429688 34.871094 12.441406 Z M 34.871094 12.441406 " fill-opacity="1" fill-rule="evenodd"/></g><g clip-path="url(#46496f7892)"><path fill="#ffffff" d="M 34.984375 12.855469 L 34.832031 13.265625 C 35.507812 13.398438 36.164062 13.628906 36.769531 13.9375 C 37.367188 14.25 37.914062 14.640625 38.375 15.101562 C 37.980469 14.597656 37.488281 14.144531 36.914062 13.765625 C 36.339844 13.382812 35.6875 13.074219 34.984375 12.855469 Z M 34.984375 12.855469 " fill-opacity="1" fill-rule="evenodd"/></g><path fill="#ffffff" d="M 33.640625 12.546875 L 33.925781 12.195312 C 33.097656 11.75 32.1875 11.410156 31.246094 11.191406 C 29.652344 10.824219 27.921875 10.808594 26.394531 11.296875 C 25.769531 11.496094 25.179688 11.777344 24.660156 12.128906 C 25.203125 11.800781 25.800781 11.546875 26.429688 11.378906 C 27.960938 10.964844 29.632812 11.0625 31.140625 11.480469 C 32.035156 11.730469 32.878906 12.09375 33.640625 12.546875 Z M 33.640625 12.546875 " fill-opacity="1" fill-rule="evenodd"/><path fill="#ffffff" d="M 33.402344 12.796875 L 33.433594 12.371094 C 31.671875 12.316406 29.910156 12.46875 28.210938 12.8125 C 26.671875 13.125 25.175781 13.605469 23.851562 14.308594 C 23.640625 14.417969 23.4375 14.535156 23.238281 14.65625 C 23.445312 14.542969 23.65625 14.433594 23.867188 14.332031 C 25.230469 13.683594 26.734375 13.273438 28.265625 13.027344 C 29.960938 12.753906 31.695312 12.675781 33.402344 12.796875 Z M 33.402344 12.796875 " fill-opacity="1" fill-rule="evenodd"/><path fill="#ffffff" d="M 33.746094 12.980469 L 33.675781 12.558594 C 32.066406 12.777344 30.511719 13.214844 29.082031 13.839844 C 27.648438 14.46875 26.324219 15.304688 25.386719 16.394531 C 24.914062 16.945312 24.546875 17.550781 24.296875 18.1875 C 24.578125 17.558594 24.976562 16.972656 25.46875 16.445312 C 26.449219 15.402344 27.789062 14.636719 29.21875 14.070312 C 30.648438 13.503906 32.183594 13.136719 33.746094 12.980469 Z M 33.746094 12.980469 " fill-opacity="1" fill-rule="evenodd"/></g></g></g><g clip-path="url(#c1f7f406aa)"><path fill="#7ed957" d="M 38.644531 36.96875 C 42.097656 36.96875 44.90625 34.160156 44.90625 30.703125 C 44.90625 27.25 42.097656 24.441406 38.644531 24.441406 L 30.039062 24.441406 C 26.582031 24.441406 23.773438 27.25 23.773438 30.703125 C 23.773438 33.332031 25.398438 35.644531 27.808594 36.558594 L 27.808594 39.738281 C 27.808594 40.105469 28.023438 40.441406 28.359375 40.589844 C 28.484375 40.644531 28.609375 40.671875 28.738281 40.671875 C 28.96875 40.671875 29.191406 40.589844 29.367188 40.429688 L 33.195312 36.960938 L 38.644531 36.960938 Z M 38.941406 29.546875 C 39.621094 29.546875 40.171875 30.09375 40.171875 30.777344 C 40.171875 31.460938 39.625 32.007812 38.941406 32.007812 C 38.265625 32.007812 37.710938 31.460938 37.710938 30.777344 C 37.710938 30.09375 38.265625 29.546875 38.941406 29.546875 Z M 29.839844 32.003906 C 29.164062 32.003906 28.609375 31.457031 28.609375 30.773438 C 28.609375 30.089844 29.15625 29.542969 29.839844 29.542969 C 30.523438 29.542969 31.070312 30.089844 31.070312 30.773438 C 31.070312 31.457031 30.523438 32.003906 29.839844 32.003906 Z M 34.394531 29.546875 C 35.070312 29.546875 35.625 30.09375 35.625 30.777344 C 35.625 31.460938 35.078125 32.007812 34.394531 32.007812 C 33.710938 32.007812 33.164062 31.460938 33.164062 30.777344 C 33.164062 30.09375 33.714844 29.546875 34.394531 29.546875 Z M 34.394531 29.546875 " fill-opacity="1" fill-rule="nonzero"/></g><g clip-path="url(#2dbfa2d7e3)"><path fill="#7ed957" d="M 44.949219 38.1875 L 36.34375 38.1875 C 32.890625 38.1875 30.082031 40.992188 30.082031 44.449219 C 30.082031 47.902344 32.890625 50.710938 36.34375 50.710938 L 41.800781 50.710938 L 45.628906 54.179688 C 45.800781 54.335938 46.027344 54.421875 46.253906 54.421875 C 46.386719 54.421875 46.511719 54.398438 46.632812 54.339844 C 46.96875 54.191406 47.1875 53.855469 47.1875 53.488281 L 47.1875 50.308594 C 49.59375 49.394531 51.21875 47.082031 51.21875 44.457031 C 51.214844 40.992188 48.398438 38.1875 44.949219 38.1875 Z M 36.046875 45.746094 C 35.371094 45.746094 34.816406 45.199219 34.816406 44.515625 C 34.816406 43.839844 35.363281 43.285156 36.046875 43.285156 C 36.730469 43.285156 37.277344 43.832031 37.277344 44.515625 C 37.269531 45.195312 36.722656 45.746094 36.046875 45.746094 Z M 40.59375 45.746094 C 39.917969 45.746094 39.363281 45.199219 39.363281 44.515625 C 39.363281 43.839844 39.910156 43.285156 40.59375 43.285156 C 41.277344 43.285156 41.824219 43.832031 41.824219 44.515625 C 41.820312 45.195312 41.273438 45.746094 40.59375 45.746094 Z M 45.144531 45.746094 C 44.464844 45.746094 43.914062 45.199219 43.914062 44.515625 C 43.914062 43.839844 44.460938 43.285156 45.144531 43.285156 C 45.828125 43.285156 46.375 43.832031 46.375 44.515625 C 46.375 45.195312 45.820312 45.746094 45.144531 45.746094 Z M 45.144531 45.746094 " fill-opacity="1" fill-rule="nonzero"/></g></svg>